<?xml version="1.0" encoding="UTF-8"?>
<svg width="229px" height="75px" viewBox="0 0 229 75" version="1.1" xmlns="http://www.w3.org/2000/svg" xmlns:xlink="http://www.w3.org/1999/xlink">
    <!-- Generator: Sketch 52.2 (67145) - http://www.bohemiancoding.com/sketch -->
    <title>logo</title>
    <desc>Created with Sketch.</desc>
    <g id="Page-1" stroke="none" stroke-width="1" fill="none" fill-rule="evenodd">
        <g id="logo" transform="translate(-3.000000, -14.000000)">
            <path d="M11.36,73 C10.3466616,73 9.4933368,72.6533368 8.8,71.96 C8.1066632,71.2666632 7.76,70.4133384 7.76,69.4 L7.76,20.84 C7.76,19.8266616 8.1066632,18.9600036 8.8,18.24 C9.4933368,17.5199964 10.3466616,17.16 11.36,17.16 L27.44,17.16 C33.5200304,17.16 38.6799788,18.5066532 42.92,21.2 C47.1600212,23.8933468 50.346656,27.373312 52.48,31.64 C54.613344,35.906688 55.68,40.3866432 55.68,45.08 C55.68,49.7733568 54.613344,54.253312 52.48,58.52 C50.346656,62.786688 47.1600212,66.2666532 42.92,68.96 C38.6799788,71.6533468 33.5200304,73 27.44,73 L11.36,73 Z M26.56,66.2 C30.9333552,66.2 34.7733168,65.3066756 38.08,63.52 C41.3866832,61.7333244 43.9466576,59.2533492 45.76,56.08 C47.5733424,52.9066508 48.48,49.2400208 48.48,45.08 C48.48,40.9199792 47.5733424,37.2533492 45.76,34.08 C43.9466576,30.9066508 41.3866832,28.4266756 38.08,26.64 C34.7733168,24.8533244 30.9333552,23.96 26.56,23.96 L15.04,23.96 L15.04,66.2 L26.56,66.2 Z M82.88,73.8 C78.7733128,73.8 75.1733488,72.9200088 72.08,71.16 C68.9866512,69.3999912 66.6000084,66.9066828 64.92,63.68 C63.2399916,60.4533172 62.4,56.7600208 62.4,52.6 C62.4,48.4399792 63.2399916,44.7466828 64.92,41.52 C66.6000084,38.2933172 68.9866512,35.8000088 72.08,34.04 C75.1733488,32.2799912 78.7733128,31.4 82.88,31.4 C86.9333536,31.4 90.5066512,32.2799912 93.6,34.04 C96.6933488,35.8000088 99.0933248,38.2933172 100.8,41.52 C102.506675,44.7466828 103.36,48.4399792 103.36,52.6 C103.36,56.7600208 102.506675,60.4533172 100.8,63.68 C99.0933248,66.9066828 96.6933488,69.3999912 93.6,71.16 C90.5066512,72.9200088 86.9333536,73.8 82.88,73.8 Z M82.88,67.16 C85.0666776,67.16 87.15999,66.6533384 89.16,65.64 C91.16001,64.6266616 92.8133268,63.0266776 94.12,60.84 C95.4266732,58.6533224 96.08,55.8800168 96.08,52.52 C96.08,49.2133168 95.4266732,46.4666776 94.12,44.28 C92.8133268,42.0933224 91.16001,40.5066716 89.16,39.52 C87.15999,38.5333284 85.0666776,38.04 82.88,38.04 C80.6399888,38.04 78.52001,38.5333284 76.52,39.52 C74.51999,40.5066716 72.8800064,42.0933224 71.6,44.28 C70.3199936,46.4666776 69.68,49.2133168 69.68,52.52 C69.68,55.8800168 70.3199936,58.6533224 71.6,60.84 C72.8800064,63.0266776 74.51999,64.6266616 76.52,65.64 C78.52001,66.6533384 80.6399888,67.16 82.88,67.16 Z M127.28,73.8 C119.493294,73.8 115.6,70.2800352 115.6,63.24 L115.6,38.44 L109.92,38.44 C109.493331,38.44 109.133335,38.2933348 108.84,38 C108.546665,37.7066652 108.4,37.3466688 108.4,36.92 C108.4,36.386664 108.639998,35.9333352 109.12,35.56 L120,24.92 C120.480002,24.4399976 120.933331,24.2 121.36,24.2 C121.786669,24.2 122.146665,24.3599984 122.44,24.68 C122.733335,25.0000016 122.88,25.3733312 122.88,25.8 L122.88,32.2 L131.92,32.2 C132.826671,32.2 133.57333,32.4933304 134.16,33.08 C134.74667,33.6666696 135.04,34.4133288 135.04,35.32 C135.04,36.1733376 134.74667,36.9066636 134.16,37.52 C133.57333,38.1333364 132.826671,38.44 131.92,38.44 L122.88,38.44 L122.88,62.6 C122.88,64.6800104 123.373328,65.9999972 124.36,66.56 C125.346672,67.1200028 126.586659,67.4 128.08,67.4 C129.146672,67.4 130.213328,67.2400016 131.28,66.92 C131.493334,66.8666664 131.719999,66.8133336 131.96,66.76 C132.200001,66.7066664 132.506665,66.68 132.88,66.68 C133.62667,66.68 134.29333,66.9599972 134.88,67.52 C135.46667,68.0800028 135.76,68.759996 135.76,69.56 C135.76,70.7866728 135.146673,71.7199968 133.92,72.36 C131.83999,73.3200048 129.626678,73.8 127.28,73.8 Z M147.36,73.4 C146.346662,73.4 145.493337,73.0533368 144.8,72.36 C144.106663,71.6666632 143.76,70.8133384 143.76,69.8 L143.76,17.88 C143.76,16.8666616 144.106663,16.0000036 144.8,15.28 C145.493337,14.5599964 146.346662,14.2 147.36,14.2 C148.426672,14.2 149.306663,14.5466632 150,15.24 C150.693337,15.9333368 151.04,16.813328 151.04,17.88 L151.04,69.8 C151.04,70.8133384 150.680004,71.6666632 149.96,72.36 C149.239996,73.0533368 148.373338,73.4 147.36,73.4 Z M181.92,73.8 C175.413301,73.8 170.333352,71.9466852 166.68,68.24 C163.026648,64.5333148 161.2,59.3200336 161.2,52.6 C161.2,48.8133144 161.893326,45.320016 163.28,42.12 C164.666674,38.919984 166.799986,36.3333432 169.68,34.36 C172.560014,32.3866568 176.106646,31.4 180.32,31.4 C184.266686,31.4 187.679986,32.3199908 190.56,34.16 C193.440014,36.0000092 195.626659,38.453318 197.12,41.52 C198.613341,44.586682 199.36,47.9333152 199.36,51.56 C199.36,52.5733384 199.02667,53.4266632 198.36,54.12 C197.69333,54.8133368 196.800006,55.16 195.68,55.16 L168.56,55.16 C168.986669,58.893352 170.373322,61.7999896 172.72,63.88 C175.066678,65.9600104 178.346646,67 182.56,67 C184.800011,67 186.759992,66.7866688 188.44,66.36 C190.120008,65.9333312 191.759992,65.320004 193.36,64.52 C193.786669,64.3066656 194.266664,64.2 194.8,64.2 C195.653338,64.2 196.399997,64.4933304 197.04,65.08 C197.680003,65.6666696 198,66.4133288 198,67.32 C198,68.4933392 197.306674,69.479996 195.92,70.28 C193.83999,71.4533392 191.786677,72.3333304 189.76,72.92 C187.733323,73.5066696 185.120016,73.8 181.92,73.8 Z M192.16,49.24 C191.999999,46.6266536 191.320006,44.4400088 190.12,42.68 C188.919994,40.9199912 187.440009,39.6266708 185.68,38.8 C183.919991,37.9733292 182.133342,37.56 180.32,37.56 C178.506658,37.56 176.720009,37.9733292 174.96,38.8 C173.199991,39.6266708 171.733339,40.9199912 170.56,42.68 C169.386661,44.4400088 168.720001,46.6266536 168.56,49.24 L192.16,49.24 Z M223.04,73.8 C215.253294,73.8 211.36,70.2800352 211.36,63.24 L211.36,38.44 L205.68,38.44 C205.253331,38.44 204.893335,38.2933348 204.6,38 C204.306665,37.7066652 204.16,37.3466688 204.16,36.92 C204.16,36.386664 204.399998,35.9333352 204.88,35.56 L215.76,24.92 C216.240002,24.4399976 216.693331,24.2 217.12,24.2 C217.546669,24.2 217.906665,24.3599984 218.2,24.68 C218.493335,25.0000016 218.64,25.3733312 218.64,25.8 L218.64,32.2 L227.68,32.2 C228.586671,32.2 229.33333,32.4933304 229.92,33.08 C230.50667,33.6666696 230.8,34.4133288 230.8,35.32 C230.8,36.1733376 230.50667,36.9066636 229.92,37.52 C229.33333,38.1333364 228.586671,38.44 227.68,38.44 L218.64,38.44 L218.64,62.6 C218.64,64.6800104 219.133328,65.9999972 220.12,66.56 C221.106672,67.1200028 222.346659,67.4 223.84,67.4 C224.906672,67.4 225.973328,67.2400016 227.04,66.92 C227.253334,66.8666664 227.479999,66.8133336 227.72,66.76 C227.960001,66.7066664 228.266665,66.68 228.64,66.68 C229.38667,66.68 230.05333,66.9599972 230.64,67.52 C231.22667,68.0800028 231.52,68.759996 231.52,69.56 C231.52,70.7866728 230.906673,71.7199968 229.68,72.36 C227.59999,73.3200048 225.386678,73.8 223.04,73.8 Z" id="Dotlet" fill="#291F1E"></path>
            <path d="M5.25540809,88.5 C4.15083859,88.5 3.25540809,87.6045695 3.25540809,86.5 C3.25540809,85.3954305 4.15083859,84.5 5.25540809,84.5 L229,84.5 C230.104569,84.5 231,85.3954305 231,86.5 C231,87.6045695 230.104569,88.5 229,88.5 L5.25540809,88.5 Z" id="Line" fill="#F45268" fill-rule="nonzero"></path>
        </g>
    </g>
</svg>