<?xml version="1.0" standalone="no"?>
<!DOCTYPE svg PUBLIC "-//W3C//DTD SVG 20010904//EN"
 "http://www.w3.org/TR/2001/REC-SVG-20010904/DTD/svg10.dtd">
<svg version="1.0" xmlns="http://www.w3.org/2000/svg"
 width="1264.000000pt" height="1264.000000pt" viewBox="0 0 1264.000000 1264.000000"
 preserveAspectRatio="xMidYMid meet">
<metadata>
Created by potrace 1.11, written by Peter Selinger 2001-2013
</metadata>
<g transform="translate(0.000000,1264.000000) scale(0.100000,-0.100000)"
fill="#000000" stroke="none">
<path d="M6117 10944 c-2 -2 -50 -6 -107 -9 -57 -3 -115 -7 -129 -10 -29 -4
-113 -16 -226 -30 -22 -2 -51 -7 -65 -10 -14 -3 -72 -15 -130 -26 -58 -11
-114 -22 -125 -24 -32 -7 -175 -44 -235 -61 -157 -47 -216 -66 -230 -72 -8 -5
-42 -17 -75 -27 -33 -11 -62 -22 -65 -25 -3 -3 -12 -6 -20 -8 -8 -2 -28 -9
-45 -16 -16 -8 -58 -26 -93 -40 -34 -15 -83 -36 -107 -47 -25 -11 -47 -18 -49
-17 -2 2 -12 -5 -22 -14 -11 -9 -21 -16 -24 -16 -11 2 -268 -133 -312 -163
-14 -11 -29 -19 -32 -19 -3 0 -37 -20 -76 -45 -39 -25 -73 -45 -76 -45 -2 0
-10 -5 -17 -10 -7 -6 -70 -51 -142 -102 -71 -50 -131 -95 -133 -100 -2 -4 -9
-8 -16 -8 -6 0 -19 -8 -28 -17 -9 -10 -23 -23 -30 -28 -180 -139 -452 -396
-618 -584 -36 -40 -77 -87 -92 -104 -16 -16 -28 -33 -28 -36 0 -4 -18 -26 -40
-50 -22 -23 -40 -45 -40 -48 0 -3 -22 -33 -50 -68 -27 -35 -50 -68 -50 -74 0
-6 -4 -11 -10 -11 -5 0 -16 -13 -25 -29 -8 -16 -22 -36 -30 -45 -9 -8 -22 -26
-28 -38 -7 -13 -38 -62 -70 -110 -31 -48 -57 -90 -57 -92 0 -3 -13 -24 -29
-48 -71 -105 -321 -607 -335 -673 -1 -5 -7 -19 -13 -30 -6 -11 -11 -22 -11
-25 -1 -11 -14 -46 -24 -64 -5 -10 -11 -26 -13 -35 -4 -14 -76 -235 -93 -281
-3 -8 -6 -19 -8 -25 -1 -5 -12 -46 -24 -90 -13 -44 -23 -88 -24 -97 0 -10 -4
-18 -9 -18 -5 0 -7 -9 -4 -20 3 -11 2 -20 -2 -20 -4 0 -8 -6 -9 -12 0 -7 -3
-24 -6 -38 -4 -14 -9 -38 -12 -55 -3 -16 -11 -57 -19 -90 -7 -33 -16 -78 -19
-100 -8 -52 -15 -93 -21 -130 -5 -26 -12 -71 -19 -119 -2 -15 -28 -56 -48 -77
-23 -24 -158 -198 -158 -204 0 -3 -11 -18 -24 -33 -31 -34 -215 -287 -269
-369 -23 -35 -45 -63 -49 -63 -4 0 -8 -4 -8 -10 0 -5 -20 -38 -45 -73 -25 -36
-45 -68 -45 -71 0 -4 -5 -12 -10 -19 -15 -18 -130 -197 -130 -202 0 -3 -16
-29 -35 -59 -19 -30 -35 -59 -35 -65 0 -5 -3 -11 -7 -13 -11 -4 -114 -210
-113 -225 0 -7 -4 -13 -9 -13 -5 0 -12 -13 -16 -30 -3 -16 -15 -47 -26 -69
-10 -22 -19 -44 -19 -49 0 -5 -14 -15 -30 -22 -17 -7 -30 -16 -30 -21 0 -5 -6
-9 -13 -9 -7 0 -22 -8 -33 -17 -10 -10 -39 -31 -64 -48 -49 -32 -250 -227
-250 -242 0 -5 -8 -18 -18 -29 -34 -38 -103 -183 -118 -249 -17 -73 -24 -244
-12 -252 5 -2 6 -8 3 -12 -2 -5 0 -23 6 -42 6 -19 12 -45 15 -59 5 -31 84
-194 96 -198 4 -2 8 -8 8 -14 0 -10 61 -73 107 -109 70 -56 246 -77 373 -45
79 20 83 22 190 75 107 53 153 80 162 94 8 14 15 -2 22 -55 9 -63 27 -132 36
-143 4 -5 9 -14 10 -20 12 -57 76 -137 133 -167 51 -26 139 -27 191 -3 42 20
116 91 116 111 0 8 4 14 9 14 22 0 112 267 126 372 3 18 7 44 10 58 3 14 8 50
11 80 3 30 7 66 9 80 3 14 8 70 11 125 l6 100 56 78 c30 42 56 76 58 75 1 -2
19 -55 39 -118 50 -153 108 -301 166 -424 11 -22 19 -45 19 -52 0 -7 3 -14 8
-16 4 -1 18 -28 32 -58 14 -30 27 -57 30 -60 3 -3 12 -18 20 -35 66 -132 288
-471 351 -535 8 -8 21 -24 29 -36 55 -78 332 -366 439 -454 29 -25 59 -50 65
-55 9 -9 83 -68 141 -113 6 -4 46 -32 90 -62 44 -30 82 -58 83 -62 2 -5 10 -8
18 -8 8 0 14 -4 14 -8 0 -5 12 -15 28 -23 15 -7 57 -33 95 -56 37 -24 67 -40
67 -35 0 4 4 2 8 -4 4 -7 52 -35 107 -64 55 -29 105 -56 110 -60 6 -5 13 -9
18 -9 4 0 40 -16 80 -35 39 -18 101 -46 137 -61 36 -15 83 -35 105 -44 22 -10
60 -23 85 -31 25 -7 49 -17 55 -22 5 -4 17 -8 27 -8 10 0 18 -5 18 -11 0 -6 6
-9 13 -6 8 3 27 -1 43 -8 27 -11 156 -55 179 -60 33 -7 79 -20 143 -41 40 -14
90 -27 110 -30 46 -7 81 -13 108 -18 32 -6 123 -18 174 -22 25 -2 45 -4 45 -5
0 -1 37 -6 120 -13 39 -4 86 -8 105 -11 63 -8 180 -20 315 -30 102 -8 161 -13
238 -20 38 -4 97 -8 132 -10 34 -1 67 -5 71 -8 5 -2 29 -5 54 -5 25 -1 79 -3
120 -7 41 -3 107 -7 145 -10 79 -5 309 -5 370 0 22 2 87 6 145 10 106 7 145
11 145 14 0 1 27 4 60 6 68 5 148 13 185 20 14 2 50 7 80 9 30 3 64 7 75 9 11
3 41 7 66 11 25 4 57 9 70 11 13 2 40 7 59 9 19 3 49 8 65 11 17 4 39 8 50 9
11 2 27 6 35 9 8 2 40 10 71 16 31 7 73 20 93 30 32 17 67 29 102 37 6 1 38
10 70 20 33 10 61 18 64 19 17 4 178 57 195 64 11 5 43 17 70 26 28 10 81 31
119 47 38 17 74 31 80 32 6 1 46 19 89 39 44 20 85 37 92 37 7 0 15 4 17 9 2
5 35 24 73 43 144 70 405 225 490 291 5 4 46 35 90 68 87 64 85 63 165 129
209 173 442 422 595 635 11 16 26 34 33 42 7 7 11 13 7 13 -4 0 0 6 7 14 7 7
18 22 25 32 7 11 28 42 46 69 48 72 101 164 170 295 71 134 168 350 159 350
-4 0 -2 4 3 8 6 4 19 34 30 67 11 33 22 65 26 70 6 10 59 165 63 188 2 7 9 32
16 57 7 25 15 51 16 58 5 25 12 23 35 -10 13 -18 25 -49 25 -68 3 -61 14 -193
20 -240 4 -25 8 -56 9 -70 2 -14 4 -25 5 -25 2 0 5 -17 14 -75 20 -123 49
-216 96 -315 57 -117 117 -175 196 -191 21 -5 41 -8 44 -7 3 0 25 4 49 7 85
11 158 87 200 207 10 30 19 57 19 62 1 4 4 17 7 30 4 18 12 69 14 100 1 4 26
-8 56 -28 31 -19 59 -35 63 -35 4 0 14 -6 21 -12 6 -7 15 -13 19 -13 4 -1 21
-8 37 -17 96 -51 237 -84 340 -80 210 8 370 174 432 447 9 40 10 231 1 275
-28 139 -113 286 -237 411 -74 74 -179 159 -240 195 -17 10 -31 22 -31 27 0 4
-4 5 -10 2 -12 -7 -57 39 -57 58 0 8 -10 36 -22 63 -23 47 -43 94 -46 104 -5
21 -99 196 -106 198 -5 2 -9 9 -9 15 0 7 -17 39 -38 72 -21 33 -41 67 -45 75
-6 14 -107 173 -124 196 -4 5 -12 18 -18 27 -14 22 -73 108 -173 249 -45 65
-81 119 -80 120 1 2 -10 17 -25 33 -15 17 -62 77 -105 135 -42 58 -87 116 -99
130 -13 13 -23 27 -23 31 0 4 -6 14 -13 21 -43 44 -97 123 -97 143 0 13 -4 35
-10 49 -6 17 -6 26 0 26 7 0 7 6 1 18 -8 14 -29 106 -47 202 -3 14 -12 50 -20
80 -8 30 -16 62 -18 70 -2 8 -9 35 -16 60 -7 25 -14 52 -15 60 -2 8 -4 16 -5
18 -2 1 -3 5 -4 10 -1 4 -19 61 -41 127 -21 66 -38 123 -37 128 1 4 -3 7 -10
7 -6 0 -9 2 -6 5 6 6 -64 198 -106 289 -14 31 -26 59 -26 63 0 18 -204 413
-213 413 -6 0 -8 3 -4 6 3 3 -19 46 -49 95 -30 49 -54 94 -54 99 0 6 -4 10
-10 10 -5 0 -10 4 -10 10 0 5 -28 51 -62 101 -35 50 -67 100 -73 110 -5 11
-13 19 -17 19 -5 0 -8 6 -8 14 0 8 -3 16 -8 18 -4 2 -29 32 -55 68 -27 36 -54
72 -60 80 -46 58 -143 177 -152 186 -5 6 -44 49 -85 94 -132 146 -351 358
-446 433 -16 12 -36 29 -45 37 -48 45 -238 190 -248 190 -6 0 -14 6 -18 13 -4
7 -32 28 -61 46 -30 19 -59 39 -66 45 -13 12 -7 8 -171 108 -66 40 -121 76
-123 81 -2 4 -10 7 -17 7 -15 0 -87 39 -96 53 -3 5 -8 8 -10 6 -2 -1 -56 23
-119 53 -159 77 -187 89 -330 146 -126 49 -275 103 -340 121 -19 5 -69 19
-110 31 -41 12 -82 23 -90 25 -8 2 -46 11 -85 20 -38 9 -79 19 -90 21 -11 2
-31 6 -45 10 -14 3 -38 7 -55 10 -16 2 -41 7 -55 10 -14 3 -38 8 -55 11 -16 2
-41 6 -55 9 -14 3 -50 7 -80 10 -102 11 -115 12 -115 14 0 14 -735 37 -748 24z"/>
</g>
</svg>
